<svg width="27" height="16" viewBox="0 0 27 16" fill="none" xmlns="http://www.w3.org/2000/svg">
<path d="M26.2719 7.44083C26.4179 7.58917 26.4999 7.79036 26.4999 8.00014C26.4999 8.20991 26.4179 8.4111 26.2719 8.55944L19.6697 15.2708C19.5236 15.4181 19.326 15.5005 19.1202 15.5C18.9144 15.4995 18.7172 15.4162 18.5717 15.2683C18.4262 15.1205 18.3443 14.92 18.3439 14.7109C18.3434 14.5018 18.4246 14.301 18.5695 14.1525L25.1717 7.44083C25.3176 7.29263 25.5155 7.20938 25.7218 7.20938C25.9281 7.20938 26.126 7.29263 26.2719 7.44083ZM19.6697 0.729426L26.2719 7.44083C26.4179 7.5891 26.5 7.79022 26.5 7.99995C26.5 8.20968 26.4181 8.41084 26.2722 8.55918C26.2 8.63262 26.1142 8.6909 26.0198 8.73066C25.9254 8.77042 25.8242 8.7909 25.722 8.79093C25.5156 8.79098 25.3177 8.70771 25.1717 8.55944L18.5695 1.8483C18.4244 1.69985 18.343 1.499 18.3433 1.28974C18.3436 1.08048 18.4255 0.879867 18.5711 0.731845C18.7166 0.583823 18.914 0.500455 19.1199 0.500002C19.3258 0.499548 19.5235 0.582046 19.6697 0.729426ZM0.535746 7.21934H25.5606C25.6309 7.21934 25.7006 7.23342 25.7656 7.26078C25.8306 7.28814 25.8897 7.32824 25.9394 7.3788C25.9892 7.42936 26.0286 7.48937 26.0555 7.55543C26.0825 7.62148 26.0963 7.69228 26.0963 7.76377V8.24951C26.0963 8.32101 26.0825 8.3918 26.0555 8.45786C26.0286 8.52391 25.9892 8.58393 25.9394 8.63449C25.8897 8.68504 25.8306 8.72514 25.7656 8.7525C25.7006 8.77986 25.6309 8.79395 25.5606 8.79395H0.535746C0.393657 8.79395 0.257388 8.73659 0.156916 8.63449C0.0564445 8.53238 0 8.39391 0 8.24951V7.76377C0 7.61938 0.0564445 7.4809 0.156916 7.3788C0.257388 7.2767 0.393657 7.21934 0.535746 7.21934Z" fill="#1D92DD"/>
</svg>
