<svg width="19" height="10" viewBox="0 0 19 10" fill="none" xmlns="http://www.w3.org/2000/svg">
<path fill-rule="evenodd" clip-rule="evenodd" d="M5.87694 0.961812L2.41925 4.45947H18.0265C18.3393 4.45947 18.5918 4.71199 18.5918 5.02482C18.5918 5.33764 18.3393 5.59019 18.0265 5.59019H2.44123L5.92395 9.03311C6.14443 9.25172 6.14632 9.60979 5.92772 9.83216C5.81841 9.94334 5.67141 9.99987 5.52631 9.99987V9.99991C5.38309 9.99991 5.23986 9.94525 5.12868 9.83593L0.686771 5.44474C0.572268 5.34136 0.500435 5.19166 0.500435 5.02482C0.500435 4.85933 0.571104 4.71072 0.683987 4.60744L5.07412 0.166563C5.29273 -0.0539384 5.65079 -0.0558267 5.87317 0.162787C6.09365 0.381381 6.09554 0.739442 5.87694 0.961812Z" fill="#0272BA"/>
</svg>
