<svg width="29" height="28" viewBox="0 0 29 28" fill="none" xmlns="http://www.w3.org/2000/svg">
<path fill-rule="evenodd" clip-rule="evenodd" d="M7.48733 25.998C7.48733 24.8917 8.38039 23.9986 9.48667 23.9986C10.593 23.9986 11.486 24.8917 11.486 25.998C11.486 27.1043 10.593 27.9973 9.48667 27.9973C8.38039 27.9973 7.48733 27.1043 7.48733 25.998ZM21.4889 25.998C21.4889 24.8917 22.3819 23.9986 23.4882 23.9986C24.5914 23.9986 25.4876 24.8917 25.4876 25.998C25.4876 27.1043 24.5945 27.9973 23.4882 27.9973C22.3819 27.9973 21.4889 27.1043 21.4889 25.998ZM9.23019 23.0005H25.4721C25.6034 23.0009 25.7336 22.9754 25.855 22.9254C25.9765 22.8754 26.0869 22.802 26.1799 22.7093C26.2729 22.6165 26.3467 22.5064 26.397 22.3851C26.4474 22.2638 26.4733 22.1337 26.4733 22.0024C26.4733 21.4462 26.0252 21.0012 25.4721 21.0012H9.2271C8.80993 21.0012 8.38348 20.6087 8.33095 20.1452L6.62827 8.15226L5.66723 2.59305C5.488 1.13759 4.20249 -0.00268555 2.74702 -0.00268555H1.47387C0.91764 -0.00268555 0.472656 0.445389 0.472656 0.998528C0.472656 1.55476 0.92073 1.99974 1.47387 1.99974H2.7532C3.18273 1.99974 3.62772 2.39837 3.68643 2.88662L4.65056 8.46746L6.35015 20.4048C6.52011 21.8602 7.79017 23.0005 9.23019 23.0005ZM9.48658 18.0779C9.52366 18.6032 9.95937 19.0018 10.4816 19.0018C10.4921 19.0018 10.504 19.0004 10.5163 18.9989C10.5294 18.9973 10.543 18.9956 10.5558 18.9956L24.0444 18.0068C25.4875 18.0068 26.7482 16.8665 26.9213 15.4636L28.4973 6.44956C28.6116 5.48234 28.349 4.55838 27.7618 3.89708C27.2519 3.32231 26.5474 3.00402 25.7841 3.00402H8.46991C7.91986 3.00402 7.4687 3.46137 7.4687 4.01451C7.4687 4.14585 7.49462 4.27589 7.54497 4.39719C7.59532 4.51849 7.66912 4.62866 7.76213 4.72138C7.85515 4.81411 7.96554 4.88757 8.087 4.93754C8.20845 4.98752 8.33858 5.01304 8.46991 5.01263H25.7934C25.9819 5.01263 26.1426 5.0868 26.2724 5.23204C26.4732 5.45762 26.5628 5.82844 26.5258 6.16218L24.9498 15.17C24.8941 15.615 24.477 16.0013 23.9764 16.0074L10.4105 17.0087C10.2795 17.0177 10.1515 17.0526 10.034 17.1113C9.9165 17.17 9.81179 17.2515 9.72589 17.3508C9.64 17.4502 9.57464 17.5657 9.53356 17.6904C9.49249 17.8152 9.47652 17.9469 9.48658 18.0779Z" fill="#253764"/>
</svg>
