<svg width="84" height="82" viewBox="0 0 84 82" fill="none" xmlns="http://www.w3.org/2000/svg">
<circle cx="40" cy="42" r="40" fill="#0272BA"/>
<path d="M58.1642 26.6H27.9392L25.3567 21.8615C25.0668 21.3296 24.5185 21 23.9235 21H20.6412C19.7348 21 19 21.7522 19 22.68C19 23.6078 19.7348 24.36 20.6412 24.36H22.9598L25.5084 29.0363L31.3862 42.3492L31.3922 42.3628L31.9099 43.5353L26.0086 49.979C25.5843 50.4423 25.4514 51.111 25.6653 51.7071C25.8792 52.3033 26.4031 52.725 27.0195 52.7971L32.3985 53.4264C39.1266 54.2135 45.9203 54.2135 52.6484 53.4264L58.0274 52.7971C58.9279 52.6918 59.5745 51.8591 59.4716 50.9372C59.3687 50.0154 58.5552 49.3535 57.6547 49.4589L52.2757 50.0882C45.7953 50.8463 39.2516 50.8463 32.7712 50.0882L30.6365 49.8384L34.9678 45.109C35.0097 45.0633 35.0487 45.0158 35.0846 44.9667L36.7319 45.1862C39.0403 45.4936 41.3738 45.5539 43.6944 45.366C49.1069 44.9278 54.1232 42.2914 57.6254 38.0443L58.8903 36.5103C58.9328 36.4588 58.9722 36.4047 59.0084 36.3484L61.3659 32.6706C63.0369 30.0638 61.2101 26.6 58.1642 26.6Z" fill="white"/>
<path d="M30.4882 56.28C28.6754 56.28 27.2058 57.7843 27.2058 59.64C27.2058 61.4957 28.6754 63 30.4882 63C32.301 63 33.7705 61.4957 33.7705 59.64C33.7705 57.7843 32.301 56.28 30.4882 56.28Z" fill="white"/>
<path d="M51.2763 59.64C51.2763 57.7843 52.7459 56.28 54.5587 56.28C56.3714 56.28 57.841 57.7843 57.841 59.64C57.841 61.4957 56.3714 63 54.5587 63C52.7459 63 51.2763 61.4957 51.2763 59.64Z" fill="white"/>
<g filter="url(#filter0_d_6375_37589)">
<circle cx="67" cy="15" r="14" fill="#E82230" stroke="white" stroke-width="2"/>
<path d="M68.625 9.96681C68.625 9.7713 68.5781 9.58795 68.4843 9.41676C68.3905 9.24572 68.2668 9.09088 68.1132 8.9523C67.9596 8.81384 67.7848 8.70376 67.5887 8.62223C67.3925 8.54083 67.1919 8.5 66.9872 8.5C66.5948 8.5 66.2322 8.64671 65.8996 8.94013C65.567 9.23341 65.4005 9.56753 65.4005 9.94246V16.3475C65.4005 16.7223 65.567 17.0606 65.8996 17.362C66.2322 17.6635 66.5948 17.8143 66.9872 17.8143C67.3967 17.8143 67.772 17.6718 68.1132 17.3865C68.4544 17.1013 68.625 16.7712 68.625 16.3964V9.96681ZM66.9872 19.2566C66.5436 19.2566 66.164 19.4034 65.8483 19.6967C65.5328 19.99 65.375 20.3486 65.375 20.7724C65.375 21.1961 65.5328 21.5588 65.8483 21.8603C66.164 22.1617 66.5436 22.3125 66.9872 22.3125C67.4308 22.3125 67.8062 22.1617 68.1131 21.8603C68.4203 21.5588 68.5739 21.1962 68.5739 20.7724C68.5739 20.3486 68.4203 19.99 68.1131 19.6967C67.8062 19.4034 67.4308 19.2566 66.9872 19.2566Z" fill="white"/>
</g>
<defs>
<filter id="filter0_d_6375_37589" x="50" y="0" width="34" height="35" filterUnits="userSpaceOnUse" color-interpolation-filters="sRGB">
<feFlood flood-opacity="0" result="BackgroundImageFix"/>
<feColorMatrix in="SourceAlpha" type="matrix" values="0 0 0 0 0 0 0 0 0 0 0 0 0 0 0 0 0 0 127 0" result="hardAlpha"/>
<feOffset dy="3"/>
<feGaussianBlur stdDeviation="1"/>
<feComposite in2="hardAlpha" operator="out"/>
<feColorMatrix type="matrix" values="0 0 0 0 0 0 0 0 0 0 0 0 0 0 0 0 0 0 0.1 0"/>
<feBlend mode="normal" in2="BackgroundImageFix" result="effect1_dropShadow_6375_37589"/>
<feBlend mode="normal" in="SourceGraphic" in2="effect1_dropShadow_6375_37589" result="shape"/>
</filter>
</defs>
</svg>
