<svg width="18" height="18" viewBox="0 0 18 18" fill="none" xmlns="http://www.w3.org/2000/svg">
<path fill-rule="evenodd" clip-rule="evenodd" d="M0.836546 10.2324C1.1914 10.2324 1.44726 10.4464 1.50769 10.8379L1.53919 10.9286C2.39676 14.2541 5.40726 16.7143 9.00083 16.7143C13.261 16.7143 16.7151 13.2602 16.7151 9C16.7151 4.73979 13.261 1.28571 9.00083 1.28571C6.14674 1.28571 3.66086 2.83859 2.32766 5.143H3.21429C3.56914 5.143 3.85714 5.43101 3.85714 5.78586C3.85714 6.14072 3.56914 6.42872 3.21429 6.42872H0.642857C0.288 6.42872 0 6.14072 0 5.78586V3.21443C0 2.85958 0.288 2.57158 0.642857 2.57158C0.997714 2.57158 1.28571 2.85958 1.28571 3.21443V4.38125C2.85647 1.75818 5.72045 0 9.00083 0C13.9714 0 18.0008 4.02943 18.0008 9C18.0008 13.9706 13.9714 18 9.00083 18C4.7824 18 1.25312 15.093 0.278546 11.1767C0.275354 11.1283 0.265483 11.0835 0.255613 11.0387C0.243615 10.9842 0.231618 10.9298 0.231618 10.8688C0.231618 10.5133 0.481689 10.2324 0.836546 10.2324ZM12.8533 8.35601H8.99877V3.21636C8.99877 2.86022 8.7127 2.57158 8.35655 2.57158C7.99977 2.57158 7.7137 2.86086 7.7137 3.21636V8.99822C7.7137 9.35501 8.00041 9.64108 8.35655 9.64108H12.854C13.2108 9.64108 13.4988 9.35501 13.4988 8.99822C13.4988 8.64208 13.2101 8.35601 12.8533 8.35601Z" fill="#7A7E80"/>
</svg>
