<svg width="10" height="10" viewBox="0 0 10 10" fill="none" xmlns="http://www.w3.org/2000/svg">
<path d="M9.78116 0.253112L9.74753 0.218764C9.45519 -0.0729215 8.98143 -0.0729215 8.69051 0.218764L4.98422 3.92584L1.27932 0.220249C0.985433 -0.0728975 0.511737 -0.0728975 0.22077 0.220249C-0.0731193 0.511959 -0.0731193 0.985679 0.22077 1.27878L3.92713 4.98442L0.219357 8.68996C-0.073119 8.98088 -0.073119 9.45467 0.219357 9.74708L0.254422 9.78066C0.545342 10.0731 1.01909 10.0731 1.3129 9.78066L5.01782 6.07576L8.72267 9.78066C9.01505 10.0731 9.4888 10.0731 9.78113 9.78066C10.0736 9.48823 10.0736 9.01454 9.78113 8.72216L6.07626 5.01728L9.78113 1.31171C10.0736 1.01852 10.0736 0.544798 9.78116 0.253112Z" fill="#7A7E80"/>
</svg>
