<svg width="16" height="16" viewBox="0 0 16 16" fill="none" xmlns="http://www.w3.org/2000/svg">
<path d="M5.4535 9.28727C5.44351 9.29999 5.43352 9.31339 5.42903 9.32951L4.65786 12.1569C4.61289 12.3215 4.65895 12.4988 4.78081 12.6239C4.87196 12.7129 4.99205 12.7619 5.11996 12.7619C5.1622 12.7619 5.20452 12.7568 5.24618 12.7457L8.05346 11.9801C8.05797 11.9801 8.06014 11.984 8.06354 11.984C8.09579 11.984 8.12747 11.9723 8.15139 11.9478L15.6582 4.44216C15.8811 4.21889 16.0034 3.91475 16.0034 3.58385C16.0034 3.2089 15.8444 2.83411 15.5659 2.55637L14.857 1.84629C14.5789 1.56781 14.2036 1.40849 13.8288 1.40849C13.498 1.40849 13.1939 1.53079 12.9703 1.7535L5.46467 9.26117C5.45687 9.26834 5.45907 9.27894 5.4535 9.28727ZM14.9236 3.70708L14.178 4.45215L12.9692 3.22421L13.7043 2.48913C13.8205 2.37234 14.0457 2.38937 14.1791 2.52331L14.8886 3.23339C14.9626 3.3073 15.0048 3.4057 15.0048 3.503C15.0043 3.58275 14.9759 3.65512 14.9236 3.70708ZM6.78852 9.4052L12.2053 3.98813L13.4146 5.21689L8.00795 10.6233L6.78852 9.4052ZM5.80162 11.6014L6.19307 10.1646L7.23722 11.2089L5.80162 11.6014ZM14.9878 6.68145C14.7037 6.68145 14.4535 6.91248 14.4524 7.20049V14.224C14.4524 14.5909 14.1544 14.8755 13.7869 14.8755H2.24062C1.87365 14.8755 1.60013 14.591 1.60013 14.224V2.66522C1.60013 2.29797 1.87363 2.02147 2.24062 2.02147H10.1646C10.4504 2.02147 10.6822 1.76755 10.6822 1.48171C10.6822 1.19644 10.4503 0.951172 10.1646 0.951172H2.16166C1.267 0.951172 0.523438 1.69162 0.523438 2.5868V14.303C0.523438 15.1982 1.26702 15.9512 2.16166 15.9512H13.8652C14.7605 15.9512 15.5225 15.1982 15.5225 14.303V7.19722C15.5214 6.91248 15.2719 6.68145 14.9878 6.68145Z" fill="#0272BA"/>
</svg>
