<svg width="16" height="14" viewBox="0 0 16 14" fill="none" xmlns="http://www.w3.org/2000/svg">
<path fill-rule="evenodd" clip-rule="evenodd" d="M10.5787 14H2.48351C1.96381 13.9995 1.46553 13.7929 1.09804 13.4254C0.730559 13.0579 0.523903 12.5596 0.523438 12.0399V1.96007C0.523903 1.44037 0.730559 0.942089 1.09804 0.574605C1.46553 0.207122 1.96381 0.000465473 2.48351 0H10.5787C11.0984 0.000465473 11.5967 0.207122 11.9642 0.574605C12.3316 0.942089 12.5383 1.44037 12.5388 1.96007V2.12004C12.5429 2.19009 12.5326 2.26024 12.5086 2.32619C12.4846 2.39214 12.4474 2.45248 12.3993 2.50353C12.3511 2.55458 12.293 2.59525 12.2286 2.62305C12.1642 2.65085 12.0947 2.66519 12.0246 2.66519C11.9544 2.66519 11.885 2.65085 11.8205 2.62305C11.7561 2.59525 11.698 2.55458 11.6499 2.50353C11.6017 2.45248 11.5645 2.39214 11.5405 2.32619C11.5165 2.26024 11.5063 2.19009 11.5104 2.12004V1.96007C11.5099 1.71265 11.4114 1.47549 11.2365 1.30053C11.0615 1.12558 10.8244 1.02708 10.5769 1.02662H2.49054C2.24326 1.02755 2.00637 1.12619 1.83151 1.30104C1.65666 1.4759 1.55801 1.71279 1.55709 1.96007V12.0399C1.55615 12.2872 1.653 12.5249 1.82654 12.701C2.00008 12.8772 2.23623 12.9776 2.48351 12.9804H10.5787C10.7016 12.9799 10.8233 12.9552 10.9367 12.9077C11.0501 12.8602 11.153 12.7907 11.2396 12.7034C11.3261 12.616 11.3946 12.5125 11.441 12.3986C11.4875 12.2848 11.5111 12.1629 11.5104 12.0399V11.4317C11.5063 11.3616 11.5165 11.2915 11.5405 11.2255C11.5645 11.1596 11.6017 11.0992 11.6499 11.0482C11.698 10.9972 11.7561 10.9565 11.8205 10.9287C11.885 10.9009 11.9544 10.8865 12.0246 10.8865C12.0947 10.8865 12.1642 10.9009 12.2286 10.9287C12.293 10.9565 12.3511 10.9972 12.3993 11.0482C12.4474 11.0992 12.4846 11.1596 12.5086 11.2255C12.5326 11.2915 12.5429 11.3616 12.5388 11.4317V12.0399C12.5374 12.5593 12.3304 13.0571 11.9631 13.4244C11.5958 13.7917 11.0981 13.9986 10.5787 14ZM10.653 10.3274L10.3014 10.032L8.04247 7.72917L8.52414 7.2018L12.4337 3.31154C12.9084 2.83691 13.332 2.83691 13.8084 3.31154L14.0826 3.58578C14.4495 3.95142 14.8157 4.31824 15.1813 4.68623C15.5698 5.07473 15.5698 5.52299 15.1813 5.91677L11.0133 10.0531L10.653 10.3274ZM9.22625 11.3761L9.22605 11.3761C8.5666 11.5269 7.90072 11.6791 7.23383 11.8181C6.98245 11.8708 6.79611 11.7126 6.84182 11.4665C6.98343 10.7428 7.13874 10.0215 7.29394 9.30054L7.29411 9.29976C7.33151 9.12604 7.36891 8.95234 7.4061 8.77865L9.84784 11.2344C9.6414 11.2812 9.43414 11.3286 9.22625 11.3761ZM8.76321 6.29999H3.00781V5.2804H8.76321V6.29999ZM6.82951 8.71712H3.00781V7.70632H6.83127V8.72591L6.82951 8.71712ZM3.14721 3.57604C3.05598 3.43903 3.00747 3.27803 3.00781 3.11343C3.00874 2.89365 3.09645 2.68314 3.25186 2.52774C3.40727 2.37233 3.61777 2.28462 3.83755 2.28369C4.00215 2.28335 4.16315 2.33186 4.30016 2.42309C4.43717 2.51432 4.54401 2.64417 4.60717 2.79617C4.67032 2.94818 4.68693 3.11551 4.6549 3.27697C4.62288 3.43843 4.54365 3.58674 4.42726 3.70314C4.31087 3.81953 4.16255 3.89876 4.00109 3.93078C3.83963 3.96281 3.6723 3.9462 3.52029 3.88304C3.36829 3.81989 3.23844 3.71305 3.14721 3.57604Z" fill="#2A2F33"/>
</svg>
