<svg width="20" height="20" viewBox="0 0 20 20" fill="none" xmlns="http://www.w3.org/2000/svg">
<mask id="mask0_3944_2311" style="mask-type:alpha" maskUnits="userSpaceOnUse" x="0" y="1" width="20" height="18">
<path fill-rule="evenodd" clip-rule="evenodd" d="M18.9329 3.23428C19.3396 2.82748 19.3396 2.16794 18.9328 1.76114C18.526 1.35435 17.8665 1.35436 17.4597 1.76116L2.46004 16.7612C2.05325 17.168 2.05325 17.8275 2.46005 18.2343C2.86685 18.6411 3.5264 18.6411 3.93319 18.2343L6.09098 16.0764C8.52504 17.0264 11.3107 17.0959 13.9364 16.0637C16.7091 14.9728 18.9091 12.7819 20 10.0001C19.2876 8.19921 18.1208 6.66258 16.6607 5.50654L18.9329 3.23428ZM14.1095 8.05771L12.6789 9.48843C12.7108 9.6559 12.7273 9.82716 12.7273 10.0001C12.7273 10.7234 12.4399 11.4171 11.9285 11.9286C11.417 12.44 10.7233 12.7274 10 12.7274C9.82707 12.7274 9.65584 12.711 9.48838 12.679L8.0577 14.1097C8.65932 14.394 9.32185 14.5456 10 14.5456C11.2055 14.5456 12.3617 14.0667 13.2141 13.2142C14.0666 12.3618 14.5455 11.2056 14.5455 10.0001C14.5455 9.32192 14.3939 8.65936 14.1095 8.05771ZM10 3.18193C11.1587 3.18193 12.2862 3.36951 13.3483 3.72008L11.3945 5.67385C10.948 5.52991 10.4779 5.45465 10 5.45465C8.79447 5.45465 7.63832 5.93355 6.78588 6.78599C5.93344 7.63842 5.45455 8.79458 5.45455 10.0001C5.45455 10.478 5.52981 10.9482 5.67378 11.3947L2.91672 14.1519C1.66555 13.0576 0.650596 11.6552 0 10.0001C1.61818 5.9092 5.58182 3.18193 10 3.18193ZM8.07153 8.07163C8.53262 7.61055 9.14181 7.33161 9.78729 7.28114L7.28102 9.78746C7.33148 9.14195 7.61042 8.53274 8.07153 8.07163Z" fill="#006FFD"/>
</mask>
<g mask="url(#mask0_3944_2311)">
<rect width="20" height="20" fill="#AFAFAF"/>
</g>
</svg>
