<svg width="20" height="20" viewBox="0 0 20 20" fill="none" xmlns="http://www.w3.org/2000/svg">
<mask id="mask0_3973_9828" style="mask-type:alpha" maskUnits="userSpaceOnUse" x="0" y="3" width="20" height="14">
<path d="M10 7.27304C9.27668 7.27304 8.58299 7.56037 8.07153 8.07184C7.56006 8.5833 7.27273 9.27699 7.27273 10.0003C7.27273 10.7236 7.56006 11.4173 8.07153 11.9288C8.58299 12.4402 9.27668 12.7276 10 12.7276C10.7233 12.7276 11.417 12.4402 11.9285 11.9288C12.4399 11.4173 12.7273 10.7236 12.7273 10.0003C12.7273 9.27699 12.4399 8.5833 11.9285 8.07184C11.417 7.56037 10.7233 7.27304 10 7.27304ZM10 14.5458C8.79447 14.5458 7.63832 14.0669 6.78588 13.2144C5.93344 12.362 5.45455 11.2058 5.45455 10.0003C5.45455 8.79478 5.93344 7.63863 6.78588 6.78619C7.63832 5.93375 8.79447 5.45486 10 5.45486C11.2055 5.45486 12.3617 5.93375 13.2141 6.78619C14.0666 7.63863 14.5455 8.79478 14.5455 10.0003C14.5455 11.2058 14.0666 12.362 13.2141 13.2144C12.3617 14.0669 11.2055 14.5458 10 14.5458ZM10 3.18213C5.58182 3.18213 1.61818 5.9094 0 10.0003C2.17273 15.5276 8.40909 18.2367 13.9364 16.0639C16.7091 14.973 18.9091 12.7821 20 10.0003C18.3818 5.9094 14.4182 3.18213 10 3.18213Z" fill="#006FFD"/>
</mask>
<g mask="url(#mask0_3973_9828)">
<rect width="20" height="20" fill="#AFAFAF"/>
</g>
</svg>
