<svg width="23" height="23" viewBox="0 0 23 23" fill="none" xmlns="http://www.w3.org/2000/svg">
<path d="M13.4388 22.2502V14.586H15.9834L16.3714 11.5452H13.4388V9.60088C13.4388 9.1035 13.5415 8.74177 13.7355 8.49308C13.9409 8.24439 14.3174 8.12004 14.8994 8.12004H16.4741V5.39574C15.9378 5.31661 15.1732 5.27139 14.1919 5.27139C13.0394 5.27139 12.1151 5.62182 11.4191 6.32268C10.723 7.02354 10.3807 8.0183 10.3807 9.29567V11.5339H7.82469V14.5747H10.3693V22.2954C4.94917 21.6285 0.75 17.0503 0.75 11.5C0.75 5.48617 5.66805 0.602783 11.75 0.602783C17.832 0.602783 22.75 5.47487 22.75 11.5C22.75 16.9486 18.7106 21.4476 13.4388 22.2502Z" fill="#0272BA"/>
</svg>
