<svg width="62" height="62" viewBox="0 0 62 62" fill="none" xmlns="http://www.w3.org/2000/svg">
<circle cx="31" cy="31" r="31" fill="#E82230"/>
<path d="M28 15H34L33.25 38.2727H28.75L28 15ZM31 47C30.2044 47 29.4413 46.6935 28.8787 46.1479C28.3161 45.6024 28 44.8624 28 44.0909C28 43.3194 28.3161 42.5794 28.8787 42.0339C29.4413 41.4883 30.2044 41.1818 31 41.1818C31.7957 41.1818 32.5587 41.4883 33.1213 42.0339C33.6839 42.5794 34 43.3194 34 44.0909C34 44.8624 33.6839 45.6024 33.1213 46.1479C32.5587 46.6935 31.7957 47 31 47Z" fill="white"/>
</svg>
