<svg width="24" height="23" viewBox="0 0 24 23" fill="none" xmlns="http://www.w3.org/2000/svg">
<path d="M5.12989 11.5C5.12989 10.7603 5.25609 10.0506 5.47937 9.38565L1.55932 6.45386C0.771716 8.01923 0.362713 9.74769 0.365246 11.5C0.365246 13.3135 0.794336 15.024 1.55738 16.5423L5.47549 13.6057C5.24703 12.9271 5.13031 12.216 5.12989 11.5Z" fill="#FBBC05"/>
<path d="M12.014 4.76942C13.6547 4.76942 15.1371 5.3383 16.302 6.27026L19.691 2.95695C17.6262 1.19691 14.9788 0.109619 12.014 0.109619C7.41052 0.109619 3.45358 2.68707 1.55859 6.45374L5.48059 9.38553C6.38343 6.70032 8.95797 4.76942 12.014 4.76942Z" fill="#EA4335"/>
<path d="M12.014 18.2304C8.957 18.2304 6.38246 16.2995 5.47865 13.6143L1.55859 16.546C3.45261 20.3127 7.40955 22.8902 12.014 22.8902C14.8546 22.8902 17.5669 21.9029 19.6037 20.0516L15.8816 17.2343C14.8322 17.8819 13.51 18.2304 12.013 18.2304" fill="#34A853"/>
<path d="M23.1341 11.4999C23.1341 10.8271 23.0273 10.102 22.8691 9.4292H12.0137V13.8298H18.2617C17.9501 15.3306 17.0996 16.4839 15.8832 17.2344L19.6043 20.0516C21.7429 18.1081 23.1341 15.2132 23.1341 11.4999Z" fill="#4285F4"/>
</svg>
