<svg width="13" height="16" viewBox="0 0 13 16" fill="none" xmlns="http://www.w3.org/2000/svg">
<path d="M3.88057 6.74371C3.88057 5.31966 5.00855 4.16523 6.39998 4.16523C7.79142 4.16523 8.9194 5.31966 8.9194 6.74371C8.9194 8.16776 7.79142 9.32219 6.39998 9.32219C5.00855 9.32219 3.88057 8.16776 3.88057 6.74371Z" fill="#0272BA"/>
<path fill-rule="evenodd" clip-rule="evenodd" d="M0.0227927 5.85306C0.289183 2.54551 2.98984 0 6.23258 0H6.56742C9.81017 0 12.5108 2.54551 12.7772 5.85306C12.9206 7.63387 12.3832 9.40215 11.278 10.7854L7.56237 15.436C6.96161 16.188 5.83839 16.188 5.23763 15.436L1.52202 10.7854C0.416848 9.40215 -0.120634 7.63387 0.0227927 5.85306ZM6.39998 2.97517C4.36635 2.97517 2.71776 4.6624 2.71776 6.74371C2.71776 8.82502 4.36635 10.5123 6.39998 10.5123C8.43362 10.5123 10.0822 8.82502 10.0822 6.74371C10.0822 4.6624 8.43362 2.97517 6.39998 2.97517Z" fill="#0272BA"/>
</svg>
