<svg width="16" height="20" viewBox="0 0 16 20" fill="none" xmlns="http://www.w3.org/2000/svg">
<path d="M4.60817 8.50816C4.60817 6.81709 5.94765 5.44621 7.59998 5.44621C9.25231 5.44621 10.5918 6.81709 10.5918 8.50816C10.5918 10.1992 9.25231 11.5701 7.59998 11.5701C5.94765 11.5701 4.60817 10.1992 4.60817 8.50816Z" fill="#0A1015"/>
<path fill-rule="evenodd" clip-rule="evenodd" d="M0.0270663 7.4505C0.343405 3.52279 3.55043 0.5 7.40119 0.5H7.79881C11.6496 0.5 14.8566 3.52279 15.1729 7.4505C15.3433 9.56522 14.705 11.665 13.3926 13.3077L8.98032 18.8303C8.26691 19.7232 6.93309 19.7232 6.21968 18.8303L1.8074 13.3077C0.495006 11.6651 -0.143253 9.56522 0.0270663 7.4505ZM7.59998 4.03301C5.18504 4.03301 3.22734 6.0366 3.22734 8.50816C3.22734 10.9797 5.18504 12.9833 7.59998 12.9833C10.0149 12.9833 11.9726 10.9797 11.9726 8.50816C11.9726 6.0366 10.0149 4.03301 7.59998 4.03301Z" fill="#0A1015"/>
</svg>
