<svg width="15" height="18" viewBox="0 0 15 18" fill="none" xmlns="http://www.w3.org/2000/svg">
<path d="M4.98345 7.66519C4.98345 6.15213 6.18193 4.92556 7.66033 4.92556C9.13873 4.92556 10.3372 6.15213 10.3372 7.66519C10.3372 9.17825 9.13873 10.4048 7.66033 10.4048C6.18193 10.4048 4.98345 9.17825 4.98345 7.66519Z" fill="white"/>
<path fill-rule="evenodd" clip-rule="evenodd" d="M0.884569 6.71887C1.16761 3.2046 4.03705 0.5 7.48247 0.5H7.83824C11.2837 0.5 14.1531 3.2046 14.4361 6.71887C14.5885 8.61099 14.0175 10.4898 12.8432 11.9595L8.89537 16.9008C8.25706 17.6997 7.06364 17.6997 6.42533 16.9008L2.4775 11.9595C1.30325 10.4898 0.732178 8.61099 0.884569 6.71887ZM7.66033 3.66111C5.49959 3.66111 3.74797 5.4538 3.74797 7.66519C3.74797 9.87658 5.49959 11.6693 7.66033 11.6693C9.82107 11.6693 11.5727 9.87658 11.5727 7.66519C11.5727 5.4538 9.82107 3.66111 7.66033 3.66111Z" fill="white"/>
</svg>
