<svg width="426" height="265" viewBox="0 0 426 265" fill="none" xmlns="http://www.w3.org/2000/svg">
<path d="M119.363 154.102V164.062H18.6796V157.324L84.4023 57.8125H94.1679L80.3007 81.9336L32.9375 154.102H119.363ZM97.1953 57.8125V200H85.5742V57.8125H97.1953Z" fill="#0272BA"/>
<path d="M409.363 155.102V165.062H308.68V158.324L374.402 58.8125H384.168L370.301 82.9336L322.937 155.102H409.363ZM387.195 58.8125V201H375.574V58.8125H387.195Z" fill="#0272BA"/>
<path d="M140.492 132.863C140.492 152.718 148.379 171.759 162.419 185.799C176.458 199.838 195.5 207.725 215.355 207.725C235.21 207.725 254.251 199.838 268.291 185.799C282.33 171.759 290.218 152.718 290.218 132.863C290.218 113.008 282.33 93.9663 268.291 79.9268C254.251 65.8873 235.21 58 215.355 58C195.5 58 176.458 65.8873 162.419 79.9268C148.379 93.9663 140.492 113.008 140.492 132.863Z" fill="white" stroke="#0272BA" stroke-width="10"/>
<path d="M224.088 111.031C224.088 114.505 225.468 117.837 227.924 120.293C230.381 122.75 233.713 124.13 237.187 124.13C240.661 124.13 243.993 122.75 246.45 120.293C248.906 117.837 250.286 114.505 250.286 111.031L229.371 100.573C227.735 101.783 226.406 103.359 225.488 105.175C224.571 106.991 224.091 108.996 224.088 111.031ZM201.339 100.573L180.424 111.031C180.424 112.751 180.762 114.454 181.421 116.043C182.079 117.633 183.044 119.077 184.26 120.293C185.477 121.51 186.921 122.474 188.51 123.133C190.099 123.791 191.803 124.13 193.523 124.13C195.243 124.13 196.946 123.791 198.536 123.133C200.125 122.474 201.569 121.51 202.785 120.293C204.002 119.077 204.967 117.633 205.625 116.043C206.283 114.454 206.622 112.751 206.622 111.031C206.622 106.738 204.531 102.961 201.339 100.573Z" fill="white"/>
<path d="M186.456 166.457C189.614 161.568 193.946 157.549 199.057 154.765C204.168 151.982 209.896 150.523 215.716 150.523C221.536 150.523 227.263 151.982 232.374 154.765C237.485 157.549 241.817 161.568 244.975 166.457C244.975 166.457 248.582 174.265 252.821 171.125C257.061 167.986 252.821 162.532 252.821 162.532C245.132 150.092 231.413 141.787 215.716 141.787C200.018 141.787 186.299 150.092 178.61 162.532C178.61 162.532 173.562 169.213 178.601 171.671C183.64 174.129 186.456 166.457 186.456 166.457Z" fill="#0272BA"/>
<path d="M234.039 102.909C232.396 103.54 230.984 104.654 229.987 106.104C228.99 107.554 228.455 109.272 228.454 111.031C228.454 113.347 229.374 115.568 231.012 117.206C232.65 118.844 234.871 119.764 237.187 119.764C239.503 119.764 241.724 118.844 243.362 117.206C245 115.568 245.92 113.347 245.92 111.031C245.92 110.206 245.767 109.424 245.553 108.664L234.039 102.909ZM196.671 102.909L185.157 108.664C184.926 109.433 184.802 110.229 184.79 111.031C184.79 113.347 185.71 115.568 187.348 117.206C188.986 118.844 191.207 119.764 193.523 119.764C195.839 119.764 198.06 118.844 199.698 117.206C201.336 115.568 202.256 113.347 202.256 111.031C202.256 107.32 199.937 104.176 196.671 102.909Z" fill="#0272BA"/>
<rect x="13" y="240" width="400" height="4" rx="2" fill="#E3F0FF"/>
<path d="M222.453 96.1074L257.93 114.056" stroke="black" stroke-width="2" stroke-linecap="round"/>
<path d="M209.023 96.1074L173.547 114.056" stroke="black" stroke-width="2" stroke-linecap="round"/>
</svg>
