<svg width="26" height="26" viewBox="0 0 26 26" fill="none" xmlns="http://www.w3.org/2000/svg">
<path fill-rule="evenodd" clip-rule="evenodd" d="M15.5787 20H7.48351C6.96381 19.9995 6.46553 19.7929 6.09804 19.4254C5.73056 19.0579 5.5239 18.5596 5.52344 18.0399V7.96007C5.5239 7.44037 5.73056 6.94209 6.09804 6.57461C6.46553 6.20712 6.96381 6.00047 7.48351 6H15.5787C16.0984 6.00047 16.5967 6.20712 16.9642 6.57461C17.3316 6.94209 17.5383 7.44037 17.5388 7.96007V8.12004C17.5429 8.19009 17.5326 8.26024 17.5086 8.32619C17.4846 8.39214 17.4474 8.45248 17.3993 8.50353C17.3511 8.55458 17.293 8.59525 17.2286 8.62305C17.1642 8.65085 17.0947 8.66519 17.0246 8.66519C16.9544 8.66519 16.885 8.65085 16.8205 8.62305C16.7561 8.59525 16.698 8.55458 16.6499 8.50353C16.6017 8.45248 16.5645 8.39214 16.5405 8.32619C16.5165 8.26024 16.5063 8.19009 16.5104 8.12004V7.96007C16.5099 7.71265 16.4114 7.47549 16.2365 7.30053C16.0615 7.12558 15.8244 7.02708 15.5769 7.02662H7.49054C7.24326 7.02755 7.00637 7.12619 6.83151 7.30104C6.65666 7.4759 6.55801 7.71279 6.55709 7.96007V18.0399C6.55615 18.2872 6.653 18.5249 6.82654 18.701C7.00008 18.8772 7.23623 18.9776 7.48351 18.9804H15.5787C15.7016 18.9799 15.8233 18.9552 15.9367 18.9077C16.0501 18.8602 16.153 18.7907 16.2396 18.7034C16.3261 18.616 16.3946 18.5125 16.441 18.3986C16.4875 18.2848 16.5111 18.1629 16.5104 18.0399V17.4317C16.5063 17.3616 16.5165 17.2915 16.5405 17.2255C16.5645 17.1596 16.6017 17.0992 16.6499 17.0482C16.698 16.9972 16.7561 16.9565 16.8205 16.9287C16.885 16.9009 16.9544 16.8865 17.0246 16.8865C17.0947 16.8865 17.1642 16.9009 17.2286 16.9287C17.293 16.9565 17.3511 16.9972 17.3993 17.0482C17.4474 17.0992 17.4846 17.1596 17.5086 17.2255C17.5326 17.2915 17.5429 17.3616 17.5388 17.4317V18.0399C17.5374 18.5593 17.3304 19.0571 16.9631 19.4244C16.5958 19.7917 16.0981 19.9986 15.5787 20ZM15.653 16.3274L15.3014 16.032L13.0425 13.7292L13.5241 13.2018L17.4337 9.31154C17.9084 8.83691 18.332 8.83691 18.8084 9.31154L19.0826 9.58578C19.4495 9.95142 19.8157 10.3182 20.1813 10.6862C20.5698 11.0747 20.5698 11.523 20.1813 11.9168L16.0133 16.0531L15.653 16.3274ZM14.2263 17.3761L14.2261 17.3761C13.5666 17.5269 12.9007 17.6791 12.2338 17.8181C11.9824 17.8708 11.7961 17.7126 11.8418 17.4665C11.9834 16.7428 12.1387 16.0215 12.2939 15.3005L12.2941 15.2998C12.3315 15.126 12.3689 14.9523 12.4061 14.7786L14.8478 17.2344C14.6414 17.2812 14.4341 17.3286 14.2263 17.3761ZM13.7632 12.3H8.00781V11.2804H13.7632V12.3ZM11.8295 14.7171H8.00781V13.7063H11.8313V14.7259L11.8295 14.7171ZM8.14721 9.57604C8.05598 9.43903 8.00747 9.27803 8.00781 9.11343C8.00874 8.89365 8.09645 8.68314 8.25186 8.52774C8.40727 8.37233 8.61777 8.28462 8.83755 8.28369C9.00215 8.28335 9.16315 8.33186 9.30016 8.42309C9.43717 8.51432 9.54401 8.64417 9.60717 8.79617C9.67032 8.94818 9.68693 9.11551 9.6549 9.27697C9.62288 9.43843 9.54365 9.58674 9.42726 9.70314C9.31087 9.81953 9.16255 9.89876 9.00109 9.93078C8.83963 9.96281 8.6723 9.9462 8.52029 9.88304C8.36829 9.81989 8.23844 9.71305 8.14721 9.57604Z" fill="#7A7E80"/>
</svg>
