<svg width="21" height="21" viewBox="0 0 21 21" fill="none" xmlns="http://www.w3.org/2000/svg">
<path d="M10.9977 20.37C9.01991 20.386 7.08182 19.8152 5.42848 18.7297C3.77514 17.6443 2.4808 16.0929 1.70915 14.2719C0.937491 12.4508 0.723174 10.4418 1.0933 8.49894C1.46342 6.55607 2.40136 4.76658 3.78851 3.35677C5.17566 1.94696 6.94971 0.980147 8.88633 0.578591C10.8229 0.177035 12.8352 0.358772 14.6685 1.10082C16.5018 1.84287 18.0739 3.11189 19.186 4.74743C20.2981 6.38296 20.9003 8.31155 20.9163 10.2893C20.9348 12.9405 19.9009 15.4908 18.0414 17.3806C16.182 19.2704 13.6488 20.3455 10.9977 20.37ZM10.8457 1.6206C9.11521 1.63462 7.4277 2.16149 5.99661 3.13458C4.56552 4.10767 3.45511 5.48327 2.80582 7.08744C2.15653 8.69161 1.99751 10.4523 2.34887 12.1468C2.70024 13.8414 3.5462 15.3937 4.77978 16.6074C6.01336 17.8212 7.57917 18.6419 9.27918 18.9657C10.9792 19.2896 12.7371 19.1021 14.3305 18.4269C15.9239 17.7517 17.2814 16.6191 18.2311 15.1724C19.1809 13.7258 19.6804 12.03 19.6663 10.2994C19.6449 7.97969 18.7042 5.76318 17.0506 4.13615C15.397 2.50913 13.1655 1.60445 10.8457 1.6206ZM14.6716 10.9649L11.5467 10.9902L11.572 14.1151C11.5733 14.2809 11.5088 14.4404 11.3925 14.5585C11.2763 14.6767 11.1178 14.7438 10.9521 14.7452C10.7863 14.7465 10.6268 14.682 10.5087 14.5657C10.3905 14.4494 10.3234 14.291 10.322 14.1253L10.2967 11.0004L7.17182 11.0257C7.00607 11.027 6.84657 10.9625 6.72841 10.8462C6.61025 10.7299 6.54312 10.5715 6.54178 10.4058C6.54043 10.24 6.60499 10.0805 6.72125 9.96235C6.83751 9.84419 6.99594 9.77706 7.16169 9.77572L10.2866 9.7504L10.2613 6.6255C10.2599 6.45975 10.3245 6.30025 10.4407 6.18209C10.557 6.06394 10.7154 5.9968 10.8812 5.99546C11.0469 5.99412 11.2064 6.05867 11.3246 6.17493C11.4428 6.29119 11.5099 6.44962 11.5112 6.61537L11.5365 9.74027L14.6614 9.71495C14.8272 9.71361 14.9867 9.77817 15.1049 9.89442C15.223 10.0107 15.2901 10.1691 15.2915 10.3349C15.2928 10.5006 15.2283 10.6601 15.112 10.7783C14.9958 10.8964 14.8373 10.9636 14.6716 10.9649Z" fill="#0272BA"/>
</svg>
