<svg width="24" height="24" viewBox="0 0 25 25" fill="none" xmlns="http://www.w3.org/2000/svg">
<mask id="mask0_9065_55616" style="mask-type:alpha" maskUnits="userSpaceOnUse" x="0" y="0" width="25" height="25">
<rect x="0.5" y="0.5" width="24" height="24" fill="#D9D9D9"/>
</mask>
<g mask="url(#mask0_9065_55616)">
<path d="M8.5 21.5C7.95 21.5 7.47917 21.3042 7.0875 20.9125C6.69583 20.5208 6.5 20.05 6.5 19.5V17.5H4.5C3.95 17.5 3.47917 17.3042 3.0875 16.9125C2.69583 16.5208 2.5 16.05 2.5 15.5V11.5C2.5 10.65 2.79167 9.9375 3.375 9.3625C3.95833 8.7875 4.66667 8.5 5.5 8.5H19.5C20.35 8.5 21.0625 8.7875 21.6375 9.3625C22.2125 9.9375 22.5 10.65 22.5 11.5V15.5C22.5 16.05 22.3042 16.5208 21.9125 16.9125C21.5208 17.3042 21.05 17.5 20.5 17.5H18.5V19.5C18.5 20.05 18.3042 20.5208 17.9125 20.9125C17.5208 21.3042 17.05 21.5 16.5 21.5H8.5ZM18.5 7.5H6.5V5.5C6.5 4.95 6.69583 4.47917 7.0875 4.0875C7.47917 3.69583 7.95 3.5 8.5 3.5H16.5C17.05 3.5 17.5208 3.69583 17.9125 4.0875C18.3042 4.47917 18.5 4.95 18.5 5.5V7.5ZM18.5 13C18.7833 13 19.0208 12.9042 19.2125 12.7125C19.4042 12.5208 19.5 12.2833 19.5 12C19.5 11.7167 19.4042 11.4792 19.2125 11.2875C19.0208 11.0958 18.7833 11 18.5 11C18.2167 11 17.9792 11.0958 17.7875 11.2875C17.5958 11.4792 17.5 11.7167 17.5 12C17.5 12.2833 17.5958 12.5208 17.7875 12.7125C17.9792 12.9042 18.2167 13 18.5 13ZM8.5 19.5H16.5V15.5H8.5V19.5Z" fill="#0272BA"/>
</g>
</svg>
