<svg width="15" height="15" viewBox="0 0 15 15" fill="none" xmlns="http://www.w3.org/2000/svg">
<path d="M7.64706 3.52941C6.31029 3.52941 5.29412 4.41176 5.29412 5.88235H6.76471C6.76471 5.29412 7.05882 4.70588 7.64706 4.70588C8.23529 4.70588 8.58824 5.07118 8.51618 5.65529C8.40912 6.52382 6.76471 6.80471 6.76471 8.34176V8.82353H8.23529V8.52941C8.23529 7.47353 10 7.11235 10 5.58824C10 4.41176 8.99706 3.52941 7.64706 3.52941ZM6.76471 11.1765H8.23529V9.70588H6.76471V11.1765ZM7.5 0C5.49647 0 3.61294 0.780294 2.19676 2.19676C0.78 3.61324 0 5.49676 0 7.5C0 11.6356 3.36441 15 7.5 15H7.50118C9.50412 15 11.3874 14.2197 12.8041 12.8032C14.2197 11.3868 15 9.50324 15 7.5C15 3.36441 11.6356 0 7.5 0ZM11.8044 11.8041C11.2407 12.371 10.5701 12.8204 9.8315 13.1264C9.09289 13.4323 8.30093 13.5887 7.50147 13.5865H7.5C4.14412 13.5865 1.41324 10.8562 1.41324 7.5C1.41105 6.70037 1.56745 5.90825 1.87339 5.16945C2.17933 4.43066 2.62873 3.75987 3.19559 3.19588C3.75959 2.62895 4.43043 2.17948 5.16927 1.87349C5.90811 1.5675 6.7003 1.41107 7.5 1.41324C10.8559 1.41324 13.5868 4.14382 13.5868 7.5C13.5889 8.29963 13.4325 9.09175 13.1266 9.83054C12.8207 10.5693 12.3713 11.2401 11.8044 11.8041Z" fill="#0272BA"/>
</svg>
