<svg width="27" height="21" viewBox="0 0 27 21" fill="none" xmlns="http://www.w3.org/2000/svg">
<path d="M22.4491 18.7977L4.75383 1.10246C4.65336 1.00199 4.51644 0.946193 4.3732 0.947345C4.22996 0.948497 4.09213 1.0065 3.99003 1.10861L3.64656 1.45208C3.54446 1.55418 3.48645 1.69201 3.4853 1.83525C3.48414 1.97849 3.53994 2.11541 3.64041 2.21588L21.3356 19.9111C21.3854 19.9609 21.4446 20.0002 21.5099 20.0268C21.5752 20.0534 21.6453 20.0668 21.7163 20.0662C21.7872 20.0657 21.8575 20.0511 21.9233 20.0235C21.989 19.9958 22.0489 19.9555 22.0994 19.905L22.4429 19.5615C22.4935 19.5109 22.5337 19.4511 22.5614 19.3853C22.5891 19.3196 22.6036 19.2492 22.6042 19.1783C22.6047 19.1074 22.5913 19.0373 22.5647 18.972C22.5381 18.9067 22.4988 18.8474 22.4491 18.7977Z" fill="#E82230"/>
<path d="M3.63688 18.7977L21.3321 1.10246C21.4326 1.00199 21.5695 0.946193 21.7127 0.947345C21.856 0.948497 21.9938 1.0065 22.0959 1.10861L22.4394 1.45208C22.5415 1.55418 22.5995 1.69201 22.6006 1.83525C22.6018 1.97849 22.546 2.11541 22.4455 2.21588L4.75029 19.9111C4.70054 19.9609 4.64133 20.0002 4.57602 20.0268C4.51071 20.0534 4.44059 20.0668 4.36966 20.0662C4.29874 20.0657 4.22839 20.0511 4.16265 20.0235C4.0969 19.9958 4.03705 19.9555 3.98649 19.905L3.64302 19.5615C3.59246 19.5109 3.5522 19.4511 3.52453 19.3853C3.49687 19.3196 3.48233 19.2492 3.48176 19.1783C3.48119 19.1074 3.49459 19.0373 3.52121 18.972C3.54782 18.9067 3.58713 18.8474 3.63688 18.7977Z" fill="#E82230"/>
</svg>
