<svg width="62" height="62" viewBox="0 0 62 62" fill="none" xmlns="http://www.w3.org/2000/svg">
<path d="M31 0C13.95 0 0 13.95 0 31C0 48.05 13.95 62 31 62C48.05 62 62 48.05 62 31C62 13.95 48.05 0 31 0ZM47.74 23.56L29.14 42.16C28.21 43.09 26.66 43.09 25.73 42.16H26.04C25.73 42.16 25.11 41.85 24.8 41.54L14.57 31.31C13.64 30.38 13.64 28.83 14.57 27.59C15.5 26.66 17.05 26.66 18.29 27.59L27.59 36.89L44.64 19.84C45.57 18.91 47.12 18.91 48.05 19.84L48.36 20.15C48.67 21.08 48.67 22.63 47.74 23.56Z" fill="#34A853"/>
</svg>
