<svg width="15" height="14" viewBox="0 0 15 14" fill="none" xmlns="http://www.w3.org/2000/svg">
<path d="M11.3084 2.11562H14.3777C14.7214 2.11562 15 2.39533 15 2.74037C15 3.0854 14.7214 3.36511 14.3777 3.36511H13.0905V12.5091C13.0905 13.3325 12.4256 14 11.6054 14H3.76947C2.94924 14 2.28432 13.3325 2.28432 12.5091V3.36511H1.29422C0.950517 3.36511 0.671875 3.0854 0.671875 2.74037C0.671875 2.39533 0.950517 2.11562 1.29422 2.11562H4.06649V0.880325C4.06649 0.39413 4.45911 0 4.94344 0H10.4314C10.9157 0 11.3084 0.39413 11.3084 0.880325V2.11562ZM10.0637 2.11562V1.24949H5.31119V2.11562H10.0637ZM3.52901 3.37931V12.5091C3.52901 12.6424 3.63667 12.7505 3.76947 12.7505H11.6054C11.7382 12.7505 11.8458 12.6424 11.8458 12.5091V3.37931H3.52901ZM5.84867 10.5213C5.84867 10.8663 5.57003 11.146 5.22632 11.146C4.88262 11.146 4.60398 10.8663 4.60398 10.5213V5.29615C4.60398 4.95112 4.88262 4.6714 5.22632 4.6714C5.57003 4.6714 5.84867 4.95112 5.84867 5.29615V10.5213ZM8.45828 10.5213C8.45828 10.8663 8.17964 11.146 7.83594 11.146C7.49223 11.146 7.21359 10.8663 7.21359 10.5213V5.29615C7.21359 4.95112 7.49223 4.6714 7.83594 4.6714C8.17964 4.6714 8.45828 4.95112 8.45828 5.29615V10.5213ZM11.075 10.5213C11.075 10.8663 10.7963 11.146 10.4526 11.146C10.1089 11.146 9.83028 10.8663 9.83028 10.5213V5.29615C9.83028 4.95112 10.1089 4.6714 10.4526 4.6714C10.7963 4.6714 11.075 4.95112 11.075 5.29615V10.5213Z" fill="#0272BA"/>
</svg>
