<svg width="26" height="26" viewBox="0 0 26 26" fill="none" xmlns="http://www.w3.org/2000/svg">
<path d="M16.4724 8.11562H19.5417C19.8854 8.11562 20.1641 8.39533 20.1641 8.74037C20.1641 9.0854 19.8854 9.36511 19.5417 9.36511H18.2546V18.5091C18.2546 19.3325 17.5897 20 16.7694 20H8.93353C8.1133 20 7.44838 19.3325 7.44838 18.5091V9.36511H6.45828C6.11458 9.36511 5.83594 9.0854 5.83594 8.74037C5.83594 8.39533 6.11458 8.11562 6.45828 8.11562H9.23056V6.88032C9.23056 6.39413 9.62317 6 10.1075 6H15.5955C16.0798 6 16.4724 6.39413 16.4724 6.88032V8.11562ZM15.2277 8.11562V7.24949H10.4753V8.11562H15.2277ZM8.69308 9.37931V18.5091C8.69308 18.6424 8.80073 18.7505 8.93353 18.7505H16.7694C16.9022 18.7505 17.0099 18.6424 17.0099 18.5091V9.37931H8.69308ZM11.0127 16.5213C11.0127 16.8663 10.7341 17.146 10.3904 17.146C10.0467 17.146 9.76804 16.8663 9.76804 16.5213V11.2961C9.76804 10.9511 10.0467 10.6714 10.3904 10.6714C10.7341 10.6714 11.0127 10.9511 11.0127 11.2961V16.5213ZM13.6223 16.5213C13.6223 16.8663 13.3437 17.146 13 17.146C12.6563 17.146 12.3777 16.8663 12.3777 16.5213V11.2961C12.3777 10.9511 12.6563 10.6714 13 10.6714C13.3437 10.6714 13.6223 10.9511 13.6223 11.2961V16.5213ZM16.239 16.5213C16.239 16.8663 15.9604 17.146 15.6167 17.146C15.273 17.146 14.9943 16.8663 14.9943 16.5213V11.2961C14.9943 10.9511 15.273 10.6714 15.6167 10.6714C15.9604 10.6714 16.239 10.9511 16.239 11.2961V16.5213Z" fill="#7A7E80"/>
</svg>
