<svg width="18" height="18" viewBox="0 0 18 18" fill="none" xmlns="http://www.w3.org/2000/svg">
<path d="M5.29714 0.449951C2.43683 0.449951 0 2.90209 0 6.08681C0 8.28381 0.89727 10.1335 2.08645 11.6657C3.27154 13.1926 4.80049 14.4743 6.18272 15.5471L8.56758 17.3979C8.82875 17.6006 9.17125 17.6006 9.43242 17.3979L11.8173 15.5471C13.1995 14.4743 14.7285 13.1926 15.9136 11.6657C17.1027 10.1335 18 8.28381 18 6.08681C18 2.90209 15.5632 0.449951 12.7029 0.449951C11.2284 0.449951 9.93102 1.24261 9 2.26825C8.06898 1.24261 6.77157 0.449951 5.29714 0.449951Z" fill="#0A1015"/>
</svg>
